<svg xmlns="http://www.w3.org/2000/svg" width="168" height="168" fill="none" viewBox="0 0 168 168" id="t">
  <path fill="#000" d="M96.375 131H71.625V94.9062V58.8125H45.625V37.25H122.375V58.8125H96.375V94.9062V131Z"></path>
  <path fill="#fff" fill-rule="evenodd" d="M96.7975 57.8125H95.375V59.3867L72.625 92.5638V57.8125H71.2025L47.6141 38.25H120.386L96.7975 57.8125ZM96.375 58.8125V131H71.625V58.8125H45.625V37.25H122.375V58.8125H96.375ZM121.375 57.8125H98.3641L121.375 38.7289V57.8125ZM46.625 38.7289L69.6359 57.8125H46.625V38.7289ZM72.625 94.332V128.658L95.375 95.4805V61.155L72.625 94.332ZM95.375 97.2487L72.917 130H95.375V97.2487Z" clip-rule="evenodd"></path>
</svg>
